<svg width="32" height="32" viewBox="0 0 32 32" fill="none" xmlns="http://www.w3.org/2000/svg">
  <rect width="32" height="32" rx="8" fill="#09090b"/>
  <path d="M22 11C22 11 21.5 9.5 20 9.5C18.5 9.5 18 11 18 11" stroke="#f59e0b" stroke-width="1.5" stroke-linecap="round"/>
  <path d="M14 11C14 11 13.5 9.5 12 9.5C10.5 9.5 10 11 10 11" stroke="#f59e0b" stroke-width="1.5" stroke-linecap="round"/>
  <path d="M8 14H24C24 18.4183 20.4183 22 16 22C11.5817 22 8 18.4183 8 14Z" fill="#f59e0b" fill-opacity="0.1" stroke="#f59e0b" stroke-width="2"/>
  <path d="M24 15.5C26 15.5 27 16.5 27 18C27 19.5 26 20.5 24 20.5" stroke="#f59e0b" stroke-width="2" stroke-linecap="round"/>
  <rect x="11" y="24" width="10" height="1.5" rx="0.75" fill="#f59e0b" fill-opacity="0.5"/>
</svg>
